<svg width="360" height="360" xmlns="http://www.w3.org/2000/svg" preserveAspectRatio="xMidYMid meet" version="1.0">
 <g>
  <title>Layer 1</title>
  <ellipse stroke="#000000" ry="175" rx="175" id="svg_15" cy="179.4" cx="179.5" fill="#fff"/>
  <path id="svg_11" d="m143.11044,72.06852c-0.18797,0 25.37592,0.93985 25.20311,0.91741c0.17281,0.02243 8.25551,-3.92493 8.25551,-4.1129c0,-0.18797 -0.75188,-7.14285 -0.92469,-7.16528c0.17281,0.02243 -5.09034,-1.48132 -5.26315,-1.50376c0.17281,0.02243 -9.22568,1.33822 -9.39849,1.31579c0.17281,0.02243 -9.41365,1.90213 -9.58646,1.8797c0.17281,0.02243 -7.90989,0.77431 -8.0827,0.75188c0.17281,0.02243 -2.45877,3.59386 -2.63158,3.57143c0.17281,0.02243 0.17281,-1.66929 0,-1.69173" opacity="NaN" stroke="#000" fill="#777777"/>
  <path stroke="#000" id="svg_13" d="m220.44324,131.10178l-6.77263,5.03679l-0.97972,4.68181l8.81748,1.67207c0.24117,0.31384 8.73207,-1.02382 8.4055,-1.35823c-0.32657,-0.33441 0.97972,-3.34415 0.73855,-3.65799" opacity="NaN" fill="#777777"/>
  <line transform="rotate(-11.4112 288.211 86.6326)" stroke-width="4" stroke="#bdb672" id="svg_19" y2="98.64539" x2="275.92811" y1="74.61987" x1="300.49392" fill="none"/>
  <line id="svg_21" y2="100.80582" x2="279.65003" y1="120.59121" x1="265.38172" stroke-width="4" stroke="#bdb672" fill="none"/>
  <line id="svg_23" y2="122.49365" x2="264.24025" y1="137.52294" x1="251.30365" stroke-width="4" stroke="#bdb672" fill="none"/>
  <line id="svg_24" y2="138.09367" x2="251.4939" y1="147.60588" x1="241.98169" stroke-width="4" stroke="#bdb672" fill="none"/>
  <path id="svg_31" d="m164.59623,172.27196l-5.98075,12.6679l-4.44016,11.58302l-3.4749,14.28572l-1.9305,8.10811c0.18924,0.07341 1.5406,2.00392 1.34755,2.19697c-0.19305,0.19305 2.50965,0.19305 2.32041,0.11964c0.18924,0.07341 2.6989,-0.69879 2.50965,-0.7722c0.18924,0.07341 2.11975,-1.66404 1.9305,-1.73745c0.18924,0.07341 1.5406,-3.01539 1.35135,-3.0888c0.18924,0.07341 4.43635,-22.51347 4.24711,-22.58688c0.18924,0.07341 2.3128,-7.6486 2.12355,-7.72201c0.18924,0.07341 2.50585,-7.45555 2.3166,-7.52896c0.18924,0.07341 -0.19686,-2.62929 -0.38991,-2.82234c-0.19305,-0.19305 0.96525,-1.5444 0.77601,-1.61782" opacity="NaN" stroke-width="4" fill="#f5bd5b"/>
  <path id="svg_32" d="m112.2796,198.1407l5.21616,2.62929l9.45946,5.40541l8.49421,5.59846l5.59846,5.21236l4.44016,4.24711l-0.19305,3.0888l-2.50965,0.96525l-1.9305,1.35135l-10.61776,-8.10811l-10.23166,-8.88031l-6.37066,-6.17761" opacity="NaN" stroke-width="4" fill="#f5bd5b"/>
  <path id="svg_33" d="m185.44566,202.0017c0.19305,0 4.05406,4.82626 3.86481,4.75284c0.18924,0.07341 -4.44396,5.86492 -4.63321,5.79151c0.18924,0.07341 -13.71038,8.37458 -13.89962,8.30116c0.18924,0.07341 -19.11578,11.27033 -19.30503,11.19692c0.18924,0.07341 -15.83393,6.63712 -16.02317,6.56371c0.18924,0.07341 -7.72582,2.00392 -7.91506,1.9305c0.18924,0.07341 -3.28566,-1.47099 -3.4749,-1.5444c0.18924,0.07341 -0.38991,-2.24319 -0.58296,-2.24319c-0.19305,0 -0.7722,-3.28185 -0.7722,-3.0888c0,0.19305 12.54827,-3.28185 12.35902,-3.35527c0.18924,0.07341 17.75682,-8.0347 17.94987,-8.0347" opacity="NaN" stroke-width="4" fill="#f5bd5b"/>
  <ellipse ry="4.53668" rx="4.63321" id="svg_34" cy="201.32603" cx="191.81631" stroke-width="4" fill="#f5bd5b"/>
  <path id="svg_36" d="m167.29893,229.41484l-3.4711,4.17369l1.1583,13.89962l3.66796,11.00387c0.18924,0.07341 7.3321,6.05797 7.52515,6.05797c0.19305,0 1.9305,-0.3861 1.73745,-0.57915c-0.19305,-0.19305 -6.37066,-25.48264 -6.5599,-25.55605c0.18924,0.07341 -1.74126,-6.68335 -1.9305,-6.75676" opacity="NaN" stroke-width="4" fill="#f5bd5b"/>
  <path id="svg_37" d="m144.1329,240.80481l2.89956,-1.03867l5.79151,3.86101l6.56371,5.59846l7.33591,7.52896l1.35135,5.40541l-2.50965,0.57915l-6.94981,-2.89575l-7.91506,-7.72201l-6.94981,-8.68726" opacity="NaN" stroke-width="4" fill="#f5bd5b"/>
  <path id="svg_38" d="m147.02865,235.3994l15.25478,-6.44407l0.96525,7.72201l0.57915,6.94981l0,5.21236c0.18924,0.07341 -3.86481,0.65256 -4.05786,0.65256c-0.19305,0 -7.33591,-6.75676 -7.52515,-6.83017" opacity="NaN" stroke-width="4" fill="#bb7777"/>
  <line id="svg_25" y2="148.5571" x2="241.41096" y1="164.9181" x1="226.38167" stroke-width="4" stroke="#bdb672" fill="none"/>
  <path id="svg_39" d="m117.62737,210.5086l8.11159,3.24934l6.66598,5.88174l6.27386,7.05809c0.12285,0.2797 -4.19042,2.24028 -4.19042,2.6324c0,0.39212 -6.27386,1.17635 -6.39671,0.89665c0.12285,0.2797 -3.79831,-1.28876 -3.92116,-1.56847" opacity="NaN" stroke-width="4" fill="#bb7777"/>
  <path id="svg_40" d="m167.81825,173.64967c0,0 3.13693,4.31328 3.01408,4.03358c0.12286,0.2797 3.6519,6.16145 3.52905,5.88174c0.12286,0.2797 7.57306,0.2797 7.45021,0c0.12286,0.2797 3.25979,-2.46511 3.13693,-2.74481c0.12286,0.2797 7.57306,-4.81781 7.45021,-5.09751c0.12286,0.2797 6.39672,10.47472 6.27386,10.19502c0.12286,0.2797 -2.62196,7.72991 -2.74481,7.45021c0.12286,0.2797 -12.42486,8.12203 -12.42486,8.12203c0,0 -10.19502,6.66598 -10.19502,6.66598c0,0 -9.41079,6.27386 -9.53365,5.99416c0.12285,0.2797 -3.79831,0.67182 -3.92116,0.39212" opacity="NaN" stroke-width="4" fill="#bb7777"/>
  <path id="svg_41" d="m170.17095,223.84056l17.91449,-11.25896c0.12286,0.2797 3.25979,1.06393 3.25979,1.45605c0,0.39212 -3.13693,4.31328 -3.25979,4.03358c0.12286,0.2797 -4.58254,5.37721 -4.7054,5.09751c0.12286,0.2797 -3.01407,9.29838 -3.13693,9.01867c0.12286,0.2797 0.12286,8.12203 0,7.84233c0.12286,0.2797 2.86767,6.55356 2.74481,6.27386c0.12286,0.2797 4.43613,3.02452 4.31328,2.74481c0.12286,0.2797 5.61248,0.67182 5.48963,0.39212c0.12286,0.2797 5.61248,1.06394 5.48963,0.78423c0.12286,0.2797 0.90709,3.41663 0.78423,3.13693c0.12286,0.2797 -10.07217,4.20087 -10.19502,3.92116c0.12286,0.2797 -8.11159,1.45605 -8.23444,1.17635c0.12286,0.2797 -3.79831,-0.11241 -3.92116,-0.39212c0.12286,0.2797 -3.01407,-10.69955 -3.13693,-10.97926" opacity="NaN" stroke-width="4" fill="#bb7777"/>
  <path id="svg_42" d="m137.6253,243.44637l2.62196,6.77839l12.54772,7.84233l2.3527,-0.39212l-3.13693,-6.27386" opacity="NaN" stroke-width="4" fill="#bb7777"/>
  <path id="svg_52" d="m71.74613,184.88495l2.49206,-5.69136l8.28924,-8.11287l4.7619,-5.46737c0.15344,0.04762 5.09171,0.57672 5.09171,0.75309c0,0.17637 6.17284,4.93827 6.34921,4.93827c0.17637,0 4.58554,2.46914 4.4321,2.42152c0.15344,0.04762 -2.66843,8.86596 -2.82187,8.81834c0.15344,0.04762 -2.13933,7.6314 -2.29277,7.58377c0.15344,0.04762 -9.54674,10.98237 -9.70018,10.93474c0.15344,0.04762 -8.84127,-4.53792 -8.99471,-4.58554c0.15344,0.04762 -4.07937,-3.65608 -4.2328,-3.7037" opacity="NaN" stroke-width="4" stroke="null" fill="#ffcccc"/>
  <path id="svg_53" d="m110.54683,200.22886c-0.17637,0 -6.34921,1.41093 -6.50265,1.36331c0.15344,0.04762 -6.37213,-9.82892 -6.52557,-9.87654c0.15344,0.04762 -8.84127,0.92946 -8.99471,0.88183c0.15344,0.04762 -0.90476,9.2187 -1.0582,9.17108c0.15344,0.04762 -0.19929,11.68783 -0.35273,11.64021c0.15344,0.04762 3.50441,9.39506 3.35097,9.34744c0.15344,0.04762 8.79541,10.62963 8.64198,10.58201c0.15344,0.04762 7.20811,-1.89241 7.05467,-1.94004c0.15344,0.04762 11.44092,-9.29982 11.28748,-9.34744c0.15344,0.04762 -2.8448,-14.06173 -2.99824,-14.10935" opacity="NaN" stroke-width="4" stroke="null" fill="#ffcccc"/>
  <path id="svg_43" d="m128.60662,105.02933l8.5037,-1.84816c0.12285,0.2797 7.96518,0.67182 7.57306,0.67182c-0.39212,0 6.27386,1.96058 6.27386,2.3527c0,0.39212 10.19502,5.88174 10.07217,5.60204c0.12285,0.2797 6.39672,14.39589 6.27386,14.11619c0.12286,0.2797 2.47555,7.33779 2.3527,7.05809c0.12286,0.2797 6.0046,2.24028 5.88174,1.96058c0.12286,0.2797 6.39672,6.55356 6.27386,6.27386c0.12286,0.2797 0.90709,6.16144 0.51497,6.16144c-0.39212,0 -6.27386,8.23444 -6.39672,7.95474c0.12286,0.2797 -8.89582,12.43531 -9.01867,12.1556c0.12286,0.2797 -5.75889,9.69049 -5.88174,9.41079c0.12285,0.2797 -5.75889,16.74858 -5.88174,16.46888c0.12285,0.2797 -4.19042,14.788 -4.31328,14.5083c0.12285,0.2797 -2.62196,9.29838 -2.74481,9.01867c0.12285,0.2797 -3.01408,1.84817 -2.62196,1.84817c0.39212,0 -7.45021,-5.09751 -7.57306,-5.37721c0.12285,0.2797 -9.28794,-7.17051 -9.28794,-7.17051c0,0 -9.01867,-4.7054 -9.14153,-4.9851c0.12285,0.2797 -5.75889,-4.03358 -5.88174,-4.31328c0.12285,0.2797 -7.71947,-15.01283 -7.84233,-15.29253c0.12285,0.2797 -1.83773,-25.59997 -1.96058,-25.87967c0.12285,0.2797 1.69132,-20.11035 1.56847,-20.39005c0.12285,0.2797 6.0046,-15.01283 5.88174,-15.29253c0.12285,0.2797 7.18095,-7.95474 7.05809,-8.23444" opacity="NaN" stroke-width="4" fill="#bb7777"/>
  <path id="svg_46" d="m168.60248,124.24302l6.54312,-4.59298l6.66598,-1.96058c0.12286,0.2797 4.82825,3.41663 4.82825,3.80875c0,0.39212 1.56847,8.62656 1.44561,8.34686c0.12286,0.2797 -3.40619,5.37721 -3.52905,5.09751c0.12286,0.2797 -6.93524,1.45605 -7.05809,1.17635c0.12286,0.2797 -6.54312,-4.81781 -6.66598,-5.09751" opacity="NaN" stroke-width="4" fill="#bb7777"/>
  <path id="svg_49" d="m219.05478,61.84425c0,0 4.96681,-0.78423 4.84395,-1.01165c0.12286,0.22742 7.44236,2.58011 7.18095,2.58011c-0.26141,0 3.65975,2.3527 3.5369,2.12528c0.12286,0.22742 2.21414,0.22742 2.09129,0c0.12286,0.22742 3.25979,3.10294 3.13693,2.87552c0.12286,0.22742 1.1685,7.54692 1.04564,7.3195c0.12286,0.22742 -6.41241,9.89962 -6.53527,9.6722c0.12286,0.22742 -4.84395,5.19422 -4.84395,5.45563c0,0.26141 -10.45643,0.78423 -10.57929,0.55682c0.12286,0.22742 -3.01407,-7.09209 -3.13693,-7.3195c0.12286,0.22742 -5.10536,-3.17092 -5.22822,-3.39834c0.12286,0.22742 1.69132,-7.09209 1.56847,-7.3195c0.12286,0.22742 4.04402,-8.13773 3.92116,-8.36515" opacity="NaN" stroke-width="4" fill="#ffcccc"/>
  <path id="svg_50" d="m196.83485,128.76543c-0.26141,0.26141 2.3527,-12.54772 2.22984,-12.77514c0.12286,0.22742 9.53365,-8.92196 9.41079,-9.14938c0.12286,0.22742 8.488,-13.10454 8.488,-13.10454c0,0 1.82988,-3.39834 1.70702,-3.62576c0.12286,0.22742 10.8407,0.75024 10.71784,0.52282c0.12286,0.22742 -3.79831,21.66311 -3.92116,21.43569c0.12286,0.22742 -9.54935,22.44734 -9.6722,22.21992c0.12286,0.22742 -6.151,8.33115 -6.27386,8.10374c0.12286,0.22742 -6.41242,7.0241 -6.53527,6.79668c0.12286,0.22742 -13.99333,28.45979 -14.25474,28.19838c-0.26141,-0.26141 -8.62656,6.01245 -8.74941,5.78503c0.12286,0.22742 -4.32113,0.48883 -4.44398,0.26141c0.12286,0.22742 -3.27549,-2.90951 -3.39834,-3.13693c0.12286,0.22742 -0.92279,-9.9676 -0.92279,-9.70619c0,0.26141 6.79668,-17.51453 6.79668,-17.51453c0,0 13.85477,-11.50208 13.59336,-11.50208" opacity="NaN" stroke-width="4" fill="#ffcccc"/>
  <ellipse stroke="null" ry="3.52905" rx="3.79046" id="svg_51" cy="144.05797" cx="206.11494" stroke-width="4" fill="#ffcccc"/>
  <path id="svg_54" d="m242.6456,215.04368l6.0194,-0.04762l15.52028,2.99824l3.7037,4.7619l-19.75309,21.34039l-7.05467,13.22751c0.15344,0.04762 -3.37389,-21.1164 -3.55026,-21.1164" opacity="NaN" stroke-width="4" stroke="null" fill="#ffcccc"/>
  <path id="svg_55" d="m215.83784,219.10012l15.89594,-13.27513l4.93827,20.28219l6.87831,24.33862l-5.46737,11.11111c0.15344,0.04762 -3.55026,4.80953 -4.07936,4.80953c-0.5291,0 -5.46737,-4.05644 -5.62081,-4.10406c0.15344,0.04762 -0.90476,-19.17636 -0.90476,-19" opacity="NaN" stroke-width="4" stroke="null" fill="#ffcccc"/>
  <path id="svg_56" d="m186.56094,248.20065c-0.35273,0 -4.2328,-4.7619 -4.40917,-4.7619c-0.17637,0 -2.46914,-7.23104 -2.46914,-7.58377c0,-0.35273 4.2328,-13.40388 4.07936,-13.4515c0.15344,0.04762 15.32099,-13.53263 15.16755,-13.58025c0.15344,0.04762 16.37919,-8.41799 16.73192,-8.41799c0.35273,0 12.69841,-1.94004 12.69841,-1.76367c0,0.17637 3.52734,5.29101 3.37389,5.24338c0.15344,0.04762 -4.9612,11.8642 -5.11464,11.81658c0.15344,0.04762 -10.2522,16.44974 -10.42857,16.44974c-0.17637,0 -18.34215,13.93298 -18.49559,13.88536" opacity="NaN" stroke-width="4" stroke="null" fill="#ffcccc"/>
  <path id="svg_57" d="m214.956,228.44756l6.0194,-4.28043l6.70194,10.75838l-3.88007,2.6455l-8.28924,-1.76367" opacity="NaN" stroke-width="4" stroke="null" fill="#ffcccc"/>
  <path id="svg_58" d="m141.94013,259.48812l28.24162,9.82892l-1.94004,8.46561l6.87831,18.34215c0.15344,0.04762 -22.95062,8.6896 -23.12698,8.33686c-0.17637,-0.35273 -3.35097,-2.29277 -3.35097,-2.46914c0,-0.17637 -1.41093,-8.11287 -1.56438,-8.1605c0.15344,0.04762 -4.25573,-14.76719 -4.40917,-14.81481" opacity="NaN" stroke-width="4" stroke="null" fill="#ffcccc"/>
  <path id="svg_59" d="m158.69498,323.33292c-0.35273,0 -8.46561,0.5291 -8.61905,0.48148c0.15344,0.04762 -1.61023,3.39859 -1.43386,3.39859c0.17637,0 2.99824,4.2328 3.1746,4.2328c0.17637,0 6.52557,0.70547 6.70194,0.70547" opacity="NaN" stroke-width="4" stroke="null" fill="#ffcccc"/>
  <path id="svg_62" d="m159.22408,320.15832l2.66843,-6.39683c0.15344,0.04762 15.49736,-2.06878 15.67372,-1.89241c0.17637,0.17637 9.34744,6.34921 9.34744,6.34921c0,0 -10.75838,12.87478 -10.91182,12.82716c0.15344,0.04762 -10.95767,3.75133 -11.11111,3.7037" opacity="NaN" stroke-width="4" stroke="null" fill="#ffcccc"/>
  <path id="svg_63" d="m151.28757,303.2271l22.77425,-7.80776c0.15344,0.04762 14.26279,19.80071 14.08642,19.80071c-0.17637,0 -8.28924,13.22751 -8.28924,13.40388c0,0.17637 -15.34392,-15.52028 -15.16755,-15.52028" opacity="NaN" stroke-width="4" stroke="null" fill="#ffcccc"/>
  <path id="svg_64" d="m174.568,300.40523l10.42857,-1.45856l2.1164,3.35097l0.17637,7.93651c0.15344,0.04762 -1.08113,6.5732 -0.90476,6.5732" opacity="NaN" stroke-width="4" stroke="null" fill="#ffcccc"/>
  <g id="svg_1" fill="#000000" transform="translate(0 278) scale(0.1 -0.1)">
   <path id="svg_2" d="m1589.33958,2170.35855c-22,-8 -57,-12 -78,-10c-105,14 -182,-72 -104,-115c37,-19 243,-16 303,5c70,24 87,44 73,86c-6,17 -19,36 -29,41c-27,14 -118,10 -165,-7zm165,-19c36,-43 -86,-79 -241,-72c-84,3 -99,10 -82,36c8,14 26,17 89,17c59,0 85,4 104,18c31,22 112,23 130,1z"/>
   <path id="svg_3" d="m2182.33958,2166.35855c-21,-11 -38,-24 -38,-30c0,-5 -9,-22 -20,-37c-11,-15 -22,-52 -26,-82c-6,-54 -5,-56 32,-92c36,-36 37,-38 26,-75c-14,-47 -83,-141 -120,-165c-39,-24 -72,-88 -78,-150c-3,-29 -7,-63 -10,-75c-5,-25 -81,-103 -101,-103c-18,0 -16,15 3,31c20,17 40,56 47,97c16,79 -57,146 -133,123c-21,-6 -43,-18 -50,-26c-11,-13 -22,-5 -76,54c-72,78 -127,109 -212,117c-187,20 -329,-90 -389,-301c-9,-29 -17,-119 -20,-215c-5,-150 -7,-163 -21,-142c-8,12 -25,22 -38,22c-12,0 -26,5 -29,10c-3,6 -19,10 -35,10c-21,0 -36,-9 -52,-30c-12,-16 -28,-30 -35,-30c-7,0 -22,-15 -33,-32c-24,-42 -77,-95 -112,-114c-21,-11 -28,-22 -28,-44c0,-34 27,-57 80,-66c19,-4 46,-12 60,-20c14,-7 37,-15 53,-19c26,-5 27,-7 27,-73c1,-78 17,-128 56,-178c16,-20 34,-44 39,-54c6,-10 17,-25 24,-34c17,-20 80,-21 87,-1c3,8 33,32 65,54l59,40l15,-29c8,-16 15,-49 15,-73c0,-48 17,-70 60,-80c14,-4 49,-30 78,-59l52,-54l1,-79c1,-115 17,-233 40,-284c10,-24 19,-58 19,-75c0,-45 24,-74 85,-100c29,-13 55,-28 58,-33c3,-5 -4,-30 -16,-56c-18,-38 -28,-47 -57,-53c-19,-4 -41,-11 -47,-17c-17,-12 -17,-93 0,-104c11,-7 71,-16 193,-29c50,-6 52,-5 117,51c37,31 71,65 77,75c5,10 10,68 10,128c0,127 -10,145 -76,140l-39,-3l-5,52c-4,40 -12,60 -34,82c-29,30 -29,31 -17,88c7,32 15,63 16,69c2,6 16,14 32,17c64,12 140,35 171,51c34,18 85,80 107,131c8,17 31,47 53,68l39,38l46,-13c63,-16 87,-63 87,-167c0,-67 2,-75 29,-101c51,-52 84,-25 162,133c66,133 85,152 169,171c144,33 183,61 158,113c-9,19 -25,30 -52,36c-21,5 -48,19 -58,29c-16,16 -28,19 -60,14c-32,-5 -49,-2 -83,19c-24,14 -53,25 -65,25c-21,0 -62,-34 -73,-61c-9,-24 -25,8 -32,66c-10,79 -24,113 -57,136c-44,32 -91,28 -177,-15c-40,-21 -79,-35 -87,-32c-21,8 -17,44 10,79c14,18 33,50 43,72c12,25 91,112 209,230c209,209 380,414 515,620c119,181 252,405 245,412c-3,3 -14,-5 -25,-18l-20,-24l-1,24c0,21 -6,15 -33,-30c-272,-442 -461,-689 -781,-1016c-66,-68 -125,-123 -132,-123c-7,0 -23,-14 -37,-31c-28,-36 -33,-32 -67,53l-23,57l44,105c24,58 49,106 55,106c5,0 25,16 44,35c30,31 37,34 76,28c84,-11 181,29 172,73c-3,18 -5,19 -80,52l-46,21l24,60c13,32 34,117 45,188c12,70 27,138 35,150c8,13 38,36 67,52c118,66 122,82 44,157c-54,53 -88,74 -148,93c-45,14 -47,14 -91,-10zm82,-43c6,-35 24,-40 28,-8c4,29 20,28 34,-3c13,-29 23,-32 32,-9c3,8 11,12 17,9c23,-15 -38,-174 -77,-200c-17,-11 -24,-25 -24,-49c0,-33 -30,-192 -48,-251c-17,-57 -72,-154 -106,-189c-24,-23 -33,-40 -29,-54c6,-26 -32,-66 -55,-57c-9,4 -21,7 -26,8c-4,1 -16,-27 -26,-61c-40,-143 -135,-283 -202,-297c-46,-11 -61,14 -55,92c7,91 46,162 145,261c86,87 111,133 112,202c1,61 45,137 103,175c12,8 38,40 56,72c19,32 42,70 53,86c22,33 15,52 -36,90c-45,35 -51,57 -28,101l20,36l21,-35c18,-31 23,-34 41,-25c11,6 20,19 20,28c0,23 -36,62 -56,62c-22,0 -12,23 17,38c38,19 63,11 69,-22zm690,-107c-7,-11 -14,-18 -17,-15c-8,8 5,36 17,36c7,0 7,-6 0,-21zm-49,-72c-8,-8 -11,-7 -11,4c0,20 13,34 18,19c3,-7 -1,-17 -7,-23zm-47,-75c-10,-14 -19,-21 -21,-15c-3,7 4,24 13,39c10,15 20,21 22,15c2,-6 -4,-24 -14,-39zm-34,-51c0,-12 -20,-25 -27,-18c-7,7 6,27 18,27c5,0 9,-4 9,-9zm-40,-59c0,-5 -7,-17 -15,-28c-15,-19 -20,-8 -9,20c6,17 24,22 24,8zm-1297,-48c57,-19 133,-85 153,-133c10,-24 14,-52 10,-83c-6,-53 8,-68 60,-68c34,0 94,-55 94,-86c0,-29 -58,-124 -110,-180c-23,-25 -59,-83 -81,-130c-37,-83 -139,-383 -139,-412c0,-10 -10,-7 -32,12c-18,14 -86,56 -151,93c-65,38 -129,78 -142,89c-27,25 -57,119 -81,254c-25,146 -11,341 33,445c41,97 125,181 203,203c53,15 131,14 183,-4zm1233,-52c-14,-14 -16,-14 -16,-1c0,20 23,44 29,28c2,-6 -4,-18 -13,-27zm-36,-46c0,-3 -4,-8 -10,-11c-5,-3 -10,-1 -10,4c0,6 5,11 10,11c6,0 10,-2 10,-4zm-838,-53c28,-25 25,-96 -6,-116c-23,-15 -27,-15 -67,6c-51,27 -64,46 -55,80c10,42 93,62 128,30zm782,-18c-4,-8 -8,-15 -10,-15c-2,0 -4,7 -4,15c0,8 4,15 10,15c5,0 7,-7 4,-15zm-46,-57c-2,-6 -10,-14 -16,-16c-7,-2 -10,2 -6,12c7,18 28,22 22,4zm-328,-53c35,-18 38,-30 11,-45c-20,-10 -111,-14 -111,-5c0,4 7,19 15,35c18,34 41,38 85,15zm284,-9c-6,-16 -24,-23 -24,-8c0,10 22,33 27,28c2,-2 1,-11 -3,-20zm-34,-35c0,-5 -7,-14 -15,-21c-12,-10 -15,-10 -15,2c0,8 3,18 7,21c9,10 23,9 23,-2zm-59,-74c-16,-16 -26,0 -10,19c9,11 15,12 17,4c2,-6 -1,-17 -7,-23zm-46,-46c-3,-6 -11,-11 -17,-11c-6,0 -6,6 2,15c14,17 26,13 15,-4zm-55,-56c-7,-9 -15,-13 -17,-11c-7,7 7,26 19,26c6,0 6,-6 -2,-15zm-50,-49c0,-2 -8,-10 -17,-17c-16,-13 -17,-12 -4,4c13,16 21,21 21,13zm-1386,-62c3,-9 6,-26 6,-39c0,-32 17,-41 39,-21c30,27 51,20 51,-17c0,-18 -4,-37 -10,-43c-10,-10 -31,-95 -31,-127c0,-10 14,-34 30,-53c37,-41 36,-40 11,-82c-21,-35 -26,-67 -11,-77c12,-7 41,33 41,57c0,25 46,75 58,63c11,-11 72,-161 72,-175c0,-18 -51,-68 -76,-74c-15,-4 -36,-18 -46,-32c-11,-13 -28,-24 -39,-24c-15,0 -19,7 -19,35c0,31 -3,35 -25,35c-19,0 -30,10 -47,43c-20,37 -22,54 -20,148c2,81 -1,109 -11,118c-11,9 -17,8 -26,-3c-8,-9 -22,-11 -43,-7c-26,5 -34,13 -38,36c-4,17 -12,40 -18,52c-14,25 -16,63 -4,63c4,0 13,-5 20,-12c16,-16 22,-7 25,35c4,42 14,57 27,38c15,-25 40,-4 40,32c0,19 3,37 7,40c11,12 31,7 37,-9zm716,-199c-15,-72 -36,-170 -46,-218c-14,-75 -21,-91 -41,-100c-13,-5 -26,-7 -30,-4c-10,11 51,232 98,351c22,59 43,106 45,104c2,-2 -10,-62 -26,-133zm111,31c46,-32 104,-17 150,37l26,31l13,-25c8,-13 17,-41 20,-62c7,-35 5,-40 -29,-64c-20,-15 -52,-41 -71,-59c-34,-31 -214,-154 -226,-154c-6,0 -3,20 28,158c25,115 23,107 33,166l8,49l12,-30c7,-17 23,-38 36,-47zm-677,-35c14,-63 14,-77 3,-88c-11,-11 -18,-10 -40,7c-25,20 -27,25 -21,78c7,63 22,99 34,86c4,-5 15,-43 24,-83zm1016,28c0,-23 -36,-79 -51,-79c-20,0 -19,29 3,63c26,40 48,48 48,16zm-168,-131c-32,-32 4,-67 37,-35c11,10 13,9 9,-2c-2,-8 -12,-19 -21,-25c-20,-13 -50,2 -55,28c-4,19 15,46 31,46c7,0 7,-4 -1,-12zm386,-20c17,-17 15,-38 -3,-38c-21,0 -19,-10 10,-40c29,-30 55,-133 55,-221c0,-64 17,-122 34,-116c6,2 12,19 13,38c3,67 20,197 28,209c5,8 20,10 44,6c20,-4 66,-10 103,-14c36,-4 69,-10 73,-14c15,-15 -11,-51 -86,-119c-82,-74 -139,-154 -178,-249c-28,-69 -58,-98 -79,-77c-18,19 -20,86 -2,97c16,10 5,53 -38,140c-24,48 -31,55 -60,58c-43,4 -53,30 -39,100c9,40 8,55 -2,65c-22,22 -43,-20 -36,-74l6,-46l-62,-58c-67,-61 -146,-105 -191,-105c-56,0 -81,84 -53,171c25,76 143,192 240,237c39,18 81,39 95,46c31,18 112,20 128,4zm-993,-103c81,-58 145,-113 145,-126c0,-4 -8,-10 -17,-13c-11,-5 -30,6 -57,32c-23,21 -75,66 -116,99c-41,33 -84,71 -95,83l-20,23l40,-21c22,-11 76,-46 120,-77zm565,41c-2,-38 -234,-185 -423,-269c-137,-61 -166,-67 -192,-41c-21,22 -14,27 70,54c121,39 354,164 470,251c37,28 53,35 62,27c7,-6 13,-16 13,-22zm-531,-168c18,-16 31,-32 28,-34c-3,-3 -21,-9 -41,-14c-27,-6 -38,-4 -49,9c-14,16 -77,136 -77,146c0,6 82,-58 139,-107zm529,65c-22,-25 -50,-80 -69,-132c-22,-64 -10,-135 31,-175c24,-25 41,-32 88,-36l57,-6l-50,-23c-27,-13 -70,-24 -94,-24c-42,-2 -44,-1 -57,37c-20,56 -48,280 -36,284c5,1 38,23 73,47c72,49 78,52 57,28zm-243,-200c3,-32 9,-68 12,-80c3,-15 -1,-22 -14,-25c-12,-3 -37,14 -76,51l-57,56l52,27c29,15 58,27 64,28c7,0 15,-25 19,-57zm89,-44c9,-47 25,-116 35,-152c14,-51 15,-67 6,-67c-21,0 -45,47 -65,126c-29,114 -36,174 -19,185c20,12 24,3 43,-92zm-150,-76c89,-85 122,-123 108,-123c-31,0 -227,173 -216,191c11,18 29,7 108,-68zm-83,-29c13,-16 12,-16 -6,-7c-11,6 -31,24 -45,39l-25,28l31,-22c17,-11 37,-29 45,-38zm40,-31c13,-16 12,-17 -3,-4c-10,7 -18,15 -18,17c0,8 8,3 21,-13zm-3,-107c37,-19 89,-37 115,-41c41,-6 47,-10 47,-32c0,-43 -28,-81 -85,-113c-53,-30 -67,-51 -44,-66c6,-3 24,8 39,25c23,25 37,31 69,31c58,0 74,-28 79,-139c4,-107 7,-117 27,-101c8,7 15,22 15,33c0,42 67,86 85,56c13,-20 5,-159 -10,-196c-27,-63 -130,-137 -183,-131c-24,3 -29,11 -46,71l-20,68l22,21l22,22l25,-24c28,-26 32,-40 12,-40c-19,0 -36,-20 -30,-36c7,-18 47,-18 62,-1c18,23 26,77 10,77c-7,0 -34,20 -59,44c-25,25 -73,59 -107,76c-63,31 -63,31 -63,74c0,28 -10,63 -27,96c-22,43 -27,67 -31,155c-3,58 -2,105 2,105c4,0 37,-15 74,-34zm62,-595c0,-5 3,-16 6,-25c5,-13 -2,-16 -34,-16c-43,0 -58,11 -48,35c6,16 76,21 76,6z"/>
   <path id="svg_4" d="m2472.33958,556.35855c-30,-17 -20,-29 21,-29c46,0 61,14 32,29c-24,13 -31,13 -53,0z"/>
   <path id="svg_5" d="m2564.33958,531.35855c0,-8 5,-12 10,-9c6,3 10,10 10,16c0,5 -4,9 -10,9c-5,0 -10,-7 -10,-16z"/>
   <path id="svg_6" d="m804.33958,1797.35855c-45,-15 -72,-18 -146,-13l-92,6l-31,-43c-32,-45 -40,-87 -19,-108c26,-26 273,-6 345,29c66,32 97,95 64,131c-15,17 -69,16 -121,-2z"/>
   <path id="svg_7" d="m2994.33958,1365.35855c-14,-6 -71,-11 -126,-12c-86,-1 -105,-4 -123,-20c-14,-13 -21,-29 -19,-45c2,-22 12,-29 57,-44c118,-39 260,-27 319,26c24,23 30,75 10,95c-15,15 -84,15 -118,0z"/>
   <path id="svg_8" d="m616.33958,336.35855c-26,-10 -64,-74 -60,-101c3,-23 6,-23 133,-23c86,0 137,-4 152,-12c54,-31 133,1 133,53c0,25 -34,58 -75,75c-33,13 -253,19 -283,8z"/>
  </g>
  <path id="svg_10" d="m-285.01216,21.31746l13.17304,0.72944l-13.17304,-0.72944z" opacity="NaN" stroke="#000" fill="#fff"/>
  <rect id="svg_18" height="0" width="0.19024" y="117.73755" x="292.39639" stroke="#000" fill="#7f7f7f"/>
  <line id="svg_20" y2="73.9814" x2="296.772" y1="73.22042" x1="296.01102" stroke="#000" fill="none"/>
 </g>

</svg>